<?xml version="1.0" encoding="UTF-8"?><svg id="Calque_1" xmlns="http://www.w3.org/2000/svg" viewBox="0 0 340.16 212.6"><defs><style>.cls-1{fill:#58bebe;}.cls-2{fill:#0c96d4;}.cls-3{fill:#18152d;}.cls-4{fill:#1197d5;}</style></defs><path class="cls-1" d="M296.8,49.44c-3.11-1.76-6.33-3.36-9.66-4.75.52,3.4.88,6.85,1.04,10.36v.02c.09,1.71.14,3.42.14,5.14,0,1.01-.02,2.03-.07,3.04-.07,3.4-.34,6.76-.76,10.07-.32,2.64-.77,5.25-1.28,7.84-.68,3.24-1.49,6.42-2.46,9.55-2.52,8.27-6.08,16.08-10.48,23.31-1.58,2.59-3.27,5.09-5.07,7.52-1.4,1.94-2.88,3.83-4.46,5.65-1.94,2.3-3.99,4.5-6.13,6.62-1.71,1.71-3.49,3.38-5.34,4.93-2.3,2-4.71,3.9-7.19,5.65,2.3,2.07,4.71,4.03,7.19,5.92,2.48-1.87,4.89-3.83,7.21-5.9,1.85-1.62,3.63-3.31,5.34-5.07,2.14-2.14,4.17-4.37,6.13-6.69,1.55-1.85,3.04-3.74,4.48-5.7,1.78-2.41,3.45-4.89,5.05-7.46,4.14-6.69,7.64-13.88,10.32-21.42,1.19-3.31,2.23-6.71,3.11-10.18.7-2.75,1.28-5.54,1.76-8.36.61-3.47,1.06-7,1.33-10.59.23-2.84.34-5.72.34-8.6v-.16c0-3.63-.18-7.23-.52-10.77"/><path class="cls-2" d="M240.8,127.19c-1.58-1.82-3.06-3.72-4.46-5.65-1.8-2.43-3.49-4.93-5.07-7.52-4.39-7.23-7.95-15.05-10.48-23.31-.97-3.13-1.78-6.31-2.46-9.55-.52-2.59-.97-5.2-1.28-7.84-.43-3.31-.7-6.67-.77-10.07-.04-1.01-.07-2.03-.07-3.04,0-1.71.04-3.42.14-5.14v-.02c2.41-1.19,4.89-2.28,7.43-3.22,3.04-1.13,6.17-2.1,9.37-2.88,2.46-.58,4.96-1.06,7.5-1.42,3.04-.45,6.13-.72,9.28-.81.77-.02,1.55-.02,2.32-.02s1.55,0,2.32.02c3.15.09,6.24.36,9.28.81,2.55.36,5.05.83,7.5,1.42,3.2.79,6.33,1.76,9.37,2.88-.29-3.38-.76-6.71-1.4-10-3.18-1.01-6.42-1.82-9.75-2.48-2.55-.5-5.14-.88-7.77-1.15-3.13-.34-6.28-.52-9.51-.52h-.09c-3.22,0-6.38.18-9.51.52-2.64.27-5.23.65-7.77,1.15-3.33.65-6.58,1.46-9.75,2.48-2.66.83-5.25,1.78-7.79,2.86h-.02c-3.33,1.4-6.53,3-9.64,4.75-.34,3.54-.52,7.14-.52,10.77v.16c0,2.88.11,5.77.34,8.6.27,3.58.72,7.12,1.33,10.59.47,2.82,1.06,5.59,1.78,8.33.86,3.47,1.89,6.87,3.09,10.18,2.68,7.55,6.17,14.73,10.34,21.42,1.58,2.57,3.24,5.04,5.05,7.46,1.42,1.96,2.91,3.85,4.48,5.7,1.94,2.32,3.99,4.57,6.11,6.71,2.5-1.71,4.91-3.58,7.21-5.54-2.14-2.12-4.19-4.32-6.13-6.62"/><path class="cls-3" d="M252.26,103.39c1.87-2.93,3.56-5.99,5.05-9.17,2.12-4.46,3.81-9.17,5.07-14.03.72-2.88,1.31-5.83,1.71-8.85-2.91-.61-5.88-.99-8.92-1.15-.97-.05-1.94-.07-2.91-.07s-1.94.02-2.91.07c-3.04.16-6.01.54-8.92,1.15.4,3.02.99,5.97,1.71,8.85,1.26,4.87,2.95,9.57,5.07,14.03,1.49,3.18,3.18,6.24,5.05,9.17"/><path class="cls-3" d="M233.41,73.29c-2.95.99-5.81,2.25-8.52,3.72.54,3.13,1.24,6.19,2.07,9.21,2.25,8.02,5.52,15.63,9.64,22.66,1.55,2.68,3.24,5.27,5.05,7.75,1.42,1.98,2.93,3.87,4.48,5.72,1.94,2.3,3.99,4.5,6.13,6.6,2.14-2.1,4.19-4.3,6.13-6.6,1.55-1.85,3.06-3.74,4.48-5.72,1.8-2.48,3.49-5.07,5.05-7.75,4.12-7.03,7.39-14.64,9.64-22.66.83-3.02,1.53-6.08,2.07-9.21.45-2.5.79-5,1.04-7.55v-.02c.27-3.04.43-6.13.43-9.24v-.47c-2.93-1.24-5.97-2.3-9.08-3.18-2.39-.65-4.84-1.19-7.32-1.62-2.97-.5-6.02-.83-9.1-.97-1.1-.04-2.21-.07-3.33-.07s-2.23.02-3.33.07c-3.09.14-6.13.47-9.1.99-2.5.41-4.93.95-7.32,1.6v.02c-3.13.86-6.15,1.91-9.08,3.18v.45c0,3.11.16,6.19.43,9.24,2.79-1.37,5.72-2.55,8.76-3.51,2.32-.72,4.71-1.33,7.14-1.8,2.91-.58,5.9-.95,8.97-1.1,1.17-.09,2.34-.11,3.54-.11s2.37.02,3.54.11c3.06.16,6.06.52,8.97,1.1,2.43.47,4.82,1.08,7.14,1.8-.16,2.48-.43,4.93-.79,7.34v.02c-.45,3.04-1.06,5.99-1.82,8.9-1.74,6.76-4.28,13.2-7.5,19.21-1.53,2.86-3.22,5.63-5.05,8.29-1.4,2.05-2.91,4.03-4.48,5.97-1.58-1.94-3.09-3.92-4.48-5.97-1.82-2.66-3.51-5.43-5.05-8.29-3.22-6.01-5.77-12.45-7.5-19.21-.77-2.91-1.37-5.86-1.82-8.9"/><rect class="cls-3" x="165.65" y="57.77" width="13.52" height="71.52"/><path class="cls-3" d="M62.06,58.25v46.49c0,7.33-5.97,13.3-13.3,13.3-3.67,0-6.98-1.49-9.4-3.9l-9.56,9.56c4.85,4.85,11.56,7.86,18.96,7.86s14.11-3,18.96-7.86c4.85-4.85,7.86-11.55,7.86-18.96v-46.49h-13.52Z"/><path class="cls-3" d="M108.59,110.52c-9.37-9.37-9.37-24.61,0-33.98,9.37-9.37,24.61-9.37,33.98,0l9.56-9.56c-14.66-14.66-38.44-14.66-53.1,0-14.66,14.66-14.66,38.44,0,53.1,14.66,14.66,38.44,14.66,53.1,0l-9.56-9.56c-9.37,9.37-24.61,9.37-33.98,0"/><polygon class="cls-3" points="297.32 120.84 297.32 121.67 299.65 121.67 299.65 129.29 300.55 129.29 300.55 121.67 302.86 121.67 302.86 120.84 297.32 120.84"/><polygon class="cls-3" points="311.81 120.84 311.81 129.29 310.89 129.29 310.89 122.59 308.07 126.7 308 126.7 305.18 122.56 305.18 129.29 304.25 129.29 304.25 120.84 305.07 120.84 308.04 125.18 311 120.84 311.81 120.84"/><path class="cls-4" d="M39.09,167.26c-1.36,0-2.61-.24-3.76-.71-1.15-.47-2.16-1.13-3.02-1.98s-1.54-1.85-2.03-3-.73-2.4-.73-3.73.24-2.58.72-3.73,1.16-2.15,2.02-2.99c.87-.84,1.88-1.5,3.04-1.97,1.16-.47,2.42-.71,3.77-.71s2.61.24,3.77.71c1.16.47,2.17,1.13,3.04,1.98.87.85,1.54,1.84,2.02,2.99.48,1.14.72,2.38.72,3.72s-.24,2.58-.73,3.73c-.49,1.15-1.17,2.15-2.03,3s-1.87,1.51-3.02,1.98c-1.15.47-2.4.71-3.76.71ZM39.09,164.23c.88,0,1.7-.16,2.45-.48s1.41-.76,1.97-1.33c.56-.57,1-1.25,1.31-2.03.31-.78.46-1.63.46-2.55s-.16-1.76-.46-2.53c-.31-.77-.75-1.45-1.31-2.03-.56-.58-1.22-1.02-1.97-1.33s-1.57-.47-2.45-.47-1.7.16-2.45.47c-.75.31-1.41.76-1.97,1.33-.56.58-1,1.26-1.31,2.03-.31.78-.46,1.62-.46,2.53s.15,1.76.46,2.55c.31.78.75,1.46,1.31,2.03.56.57,1.22,1.02,1.97,1.33.75.32,1.57.48,2.45.48Z"/><path class="cls-4" d="M51.38,166.97v-13.32h3.04v2.96l-.25-.44c.31-1,.8-1.69,1.46-2.08.66-.39,1.46-.59,2.39-.59h.78v2.86h-1.15c-.92,0-1.65.28-2.2.83-.55.56-.83,1.34-.83,2.35v7.42h-3.23Z"/><path class="cls-4" d="M60.43,166.97v-18.54h3.23v18.54h-3.23Z"/><path class="cls-4" d="M72.95,167.26c-1.37,0-2.58-.31-3.61-.93-1.04-.62-1.84-1.46-2.41-2.52-.57-1.06-.86-2.24-.86-3.53s.29-2.53.88-3.56c.59-1.04,1.38-1.86,2.38-2.46,1-.6,2.12-.91,3.38-.91,1.04,0,1.96.17,2.75.51s1.46.82,2.02,1.42c.55.6.98,1.29,1.27,2.07.29.78.44,1.61.44,2.51,0,.24-.01.49-.04.72-.02.24-.07.45-.13.65h-10.28v-2.47h8.47l-1.54,1.15c.16-.75.13-1.42-.08-2.01-.22-.59-.58-1.05-1.08-1.4s-1.1-.51-1.8-.51-1.27.17-1.79.51-.92.83-1.19,1.47c-.27.64-.37,1.41-.31,2.33-.07.82.04,1.54.33,2.17.29.63.71,1.11,1.27,1.46.56.34,1.21.51,1.95.51s1.36-.15,1.87-.47c.51-.31.92-.73,1.21-1.25l2.59,1.27c-.26.64-.67,1.2-1.22,1.69-.56.49-1.22.87-1.98,1.15-.77.28-1.6.42-2.5.42ZM71.06,151.3l1.59-4.24h4.16l-2.6,4.24h-3.16Z"/><path class="cls-4" d="M85.36,167.26c-.93,0-1.74-.16-2.44-.47-.69-.31-1.23-.75-1.6-1.33-.38-.58-.56-1.25-.56-2.02s.17-1.39.5-1.97c.33-.58.84-1.06,1.53-1.46.69-.39,1.55-.67,2.59-.83l4.33-.71v2.45l-3.72.66c-.64.11-1.11.31-1.42.6-.31.29-.47.67-.47,1.14s.18.82.53,1.09c.35.27.79.4,1.31.4.67,0,1.26-.14,1.78-.43.51-.29.91-.68,1.19-1.19.28-.51.42-1.05.42-1.64v-3.45c0-.57-.22-1.05-.66-1.43-.44-.38-1.03-.58-1.76-.58-.69,0-1.29.19-1.82.56-.53.38-.92.86-1.16,1.44l-2.62-1.27c.26-.7.67-1.31,1.24-1.82.56-.51,1.23-.92,2-1.21.77-.29,1.6-.44,2.5-.44,1.09,0,2.06.2,2.89.6.83.4,1.48.96,1.95,1.68.46.72.7,1.54.7,2.47v8.86h-3.04v-2.28l.69-.02c-.34.56-.75,1.03-1.24,1.42-.48.39-1.02.69-1.62.88-.6.2-1.26.29-2,.29Z"/><path class="cls-4" d="M95.55,166.97v-13.32h3.04v2.62l-.25-.47c.31-.8.82-1.41,1.53-1.82.71-.42,1.54-.62,2.49-.62s1.85.21,2.61.64c.76.42,1.35,1.02,1.78,1.78.42.76.64,1.64.64,2.63v8.57h-3.21v-7.81c0-.59-.11-1.09-.34-1.52s-.55-.75-.96-.98c-.41-.23-.87-.34-1.4-.34s-.99.11-1.4.34c-.41.23-.73.56-.96.98s-.34.93-.34,1.52v7.81h-3.23Z"/><path class="cls-4" d="M115.17,167.26c-1.42,0-2.66-.34-3.71-1.02s-1.78-1.6-2.19-2.75l2.42-1.15c.34.75.82,1.34,1.43,1.76.61.42,1.29.64,2.04.64.57,0,1.03-.13,1.37-.39.34-.26.51-.6.51-1.03,0-.26-.07-.48-.21-.65-.14-.17-.32-.32-.55-.44-.23-.12-.49-.22-.78-.31l-2.18-.61c-1.11-.31-1.96-.8-2.53-1.48-.58-.68-.87-1.47-.87-2.39,0-.82.21-1.53.62-2.14s1-1.09,1.74-1.43,1.6-.51,2.56-.51c1.26,0,2.37.3,3.33.91s1.65,1.45,2.06,2.55l-2.45,1.15c-.23-.6-.61-1.08-1.15-1.43-.54-.35-1.14-.53-1.81-.53-.54,0-.96.12-1.27.35-.31.24-.46.56-.46.97,0,.23.07.43.2.61.13.18.31.33.55.44.24.11.51.22.82.32l2.13.64c1.09.33,1.94.82,2.53,1.47.6.65.89,1.45.89,2.4,0,.8-.21,1.51-.64,2.12-.42.61-1.01,1.09-1.76,1.43s-1.63.51-2.64.51Z"/></svg>
